<?xml version="1.0" encoding="utf-8"?>
<svg xmlns="http://www.w3.org/2000/svg" version="1.1" width="1400" height="650">

<line x1="300" y1="8.20621" x2="152.052" y2="156.155" stroke="rgb(238,238,1)" />
<text x="226.026" y="97.1804" fill="rgb(238,238,1)" >0</text>
<text x="226.026" y="77.1804" fill="grey" >1</text>
<line x1="300" y1="8.20621" x2="447.948" y2="156.155" stroke="rgb(238,238,1)" />
<text x="373.974" y="65.1804" fill="rgb(238,238,1)" >1</text>
<text x="373.974" y="77.1804" fill="grey" >1</text>
<line x1="152.052" y1="156.155" x2="300" y2="304.103" stroke="rgb(238,1,1)" />
<text x="226.026" y="245.129" fill="rgb(238,1,1)" >2</text>
<text x="226.026" y="225.129" fill="grey" >1</text>
<line x1="447.948" y1="156.155" x2="300" y2="304.103" stroke="rgb(238,1,1)" />
<text x="373.974" y="213.129" fill="rgb(238,1,1)" >3</text>
<text x="373.974" y="225.129" fill="grey" >1</text>
<line x1="300" y1="304.103" x2="152.052" y2="452.052" stroke="rgb(238,1,1)" />
<text x="226.026" y="393.077" fill="rgb(238,1,1)" >4</text>
<text x="226.026" y="373.077" fill="grey" >1</text>
<line x1="300" y1="304.103" x2="447.948" y2="452.052" stroke="rgb(238,1,1)" />
<text x="373.974" y="361.077" fill="rgb(238,1,1)" >5</text>
<text x="373.974" y="373.077" fill="grey" >1</text>
<line x1="152.052" y1="156.155" x2="4.1031" y2="600" stroke="rgb(1,238,100)" />
<text x="78.0773" y="393.077" fill="rgb(1,238,100)" >6</text>
<text x="78.0773" y="373.077" fill="grey" >1</text>
<line x1="447.948" y1="156.155" x2="595.897" y2="600" stroke="rgb(1,238,100)" />
<text x="521.923" y="361.077" fill="rgb(1,238,100)" >7</text>
<text x="521.923" y="373.077" fill="grey" >1</text>
<line x1="152.052" y1="452.052" x2="300" y2="452.052" stroke="rgb(238,238,1)" />
<text x="226.026" y="467.052" fill="rgb(238,238,1)" >8</text>
<text x="226.026" y="447.052" fill="grey" >1</text>
<line x1="300" y1="452.052" x2="447.948" y2="452.052" stroke="rgb(238,238,1)" />
<text x="373.974" y="435.052" fill="rgb(238,238,1)" >9</text>
<text x="373.974" y="447.052" fill="grey" >1</text>
<line x1="447.948" y1="452.052" x2="595.897" y2="600" stroke="rgb(1,238,100)" />
<text x="521.923" y="541.026" fill="rgb(1,238,100)" >10</text>
<text x="521.923" y="521.026" fill="grey" >1</text>
<line x1="152.052" y1="452.052" x2="4.1031" y2="600" stroke="rgb(1,238,100)" />
<text x="78.0773" y="509.026" fill="rgb(1,238,100)" >11</text>
<text x="78.0773" y="521.026" fill="grey" >1</text>
<line x1="4.1031" y1="600" x2="595.897" y2="600" stroke="rgb(1,206,238)" />
<text x="300" y="615" fill="rgb(1,206,238)" >12</text>
<text x="300" y="595" fill="grey" >1</text>
<circle cx="300" cy="8.20621" r="5" fill="rgb(238,238,1)" />
<text x="295" y="-1.79379" fill="black" >A</text>
<circle cx="152.052" cy="156.155" r="5" fill="rgb(1,194,238)" />
<text x="147.052" y="146.155" fill="black" >B</text>
<circle cx="447.948" cy="156.155" r="5" fill="rgb(1,194,238)" />
<text x="442.948" y="146.155" fill="black" >C</text>
<circle cx="300" cy="304.103" r="5" fill="rgb(238,1,1)" />
<text x="295" y="294.103" fill="black" >D</text>
<circle cx="152.052" cy="452.052" r="5" fill="rgb(1,194,238)" />
<text x="147.052" y="442.052" fill="black" >E</text>
<circle cx="300" cy="452.052" r="5" fill="rgb(238,238,1)" />
<text x="295" y="442.052" fill="black" >F</text>
<circle cx="447.948" cy="452.052" r="5" fill="rgb(1,194,238)" />
<text x="442.948" y="442.052" fill="black" >G</text>
<circle cx="4.1031" cy="600" r="5" fill="rgb(1,222,238)" />
<text x="-0.896896" y="590" fill="black" >H</text>
<circle cx="595.897" cy="600" r="5" fill="rgb(1,222,238)" />
<text x="590.897" y="590" fill="black" >I</text>
<rect x="10" y="610" width="190" height="30" rx="5" ry="5" fill="white" stroke="black" stroke-width="1px" />
<text x="20" y="630" fill="darkorchid" >indice arete</text>
<text x="110" y="630" fill="darkgrey" >poids arete</text>


</svg>
