<?xml version="1.0" encoding="utf-8"?>
<svg xmlns="http://www.w3.org/2000/svg" version="1.1" width="1400" height="650">

<line x1="300" y1="100" x2="200" y2="200" stroke="black" />
<text x="250" y="165" fill="darkorchid" >0</text>
<text x="250" y="145" fill="grey" >1</text>
<line x1="300" y1="100" x2="400" y2="200" stroke="black" />
<text x="350" y="133" fill="darkorchid" >1</text>
<text x="350" y="145" fill="grey" >1</text>
<line x1="200" y1="200" x2="300" y2="300" stroke="black" />
<text x="250" y="265" fill="darkorchid" >2</text>
<text x="250" y="245" fill="grey" >1</text>
<line x1="400" y1="200" x2="300" y2="300" stroke="black" />
<text x="350" y="233" fill="darkorchid" >3</text>
<text x="350" y="245" fill="grey" >1</text>
<line x1="300" y1="300" x2="200" y2="400" stroke="black" />
<text x="250" y="365" fill="darkorchid" >4</text>
<text x="250" y="345" fill="grey" >1</text>
<line x1="300" y1="300" x2="400" y2="400" stroke="black" />
<text x="350" y="333" fill="darkorchid" >5</text>
<text x="350" y="345" fill="grey" >1</text>
<line x1="200" y1="200" x2="100" y2="500" stroke="black" />
<text x="150" y="365" fill="darkorchid" >6</text>
<text x="150" y="345" fill="grey" >1</text>
<line x1="400" y1="200" x2="500" y2="500" stroke="black" />
<text x="450" y="333" fill="darkorchid" >7</text>
<text x="450" y="345" fill="grey" >1</text>
<line x1="200" y1="400" x2="300" y2="400" stroke="black" />
<text x="250" y="415" fill="darkorchid" >8</text>
<text x="250" y="395" fill="grey" >1</text>
<line x1="300" y1="400" x2="400" y2="400" stroke="black" />
<text x="350" y="383" fill="darkorchid" >9</text>
<text x="350" y="395" fill="grey" >1</text>
<line x1="400" y1="400" x2="500" y2="500" stroke="black" />
<text x="450" y="465" fill="darkorchid" >10</text>
<text x="450" y="445" fill="grey" >1</text>
<line x1="200" y1="400" x2="100" y2="500" stroke="black" />
<text x="150" y="433" fill="darkorchid" >11</text>
<text x="150" y="445" fill="grey" >1</text>
<circle cx="300" cy="100" r="5" fill="rgb(238,238,1)" />
<text x="295" y="90" fill="black" >A</text>
<circle cx="200" cy="200" r="5" fill="rgb(1,238,238)" />
<text x="195" y="190" fill="black" >B</text>
<circle cx="400" cy="200" r="5" fill="rgb(1,238,238)" />
<text x="395" y="190" fill="black" >C</text>
<circle cx="300" cy="300" r="5" fill="rgb(238,1,1)" />
<text x="295" y="290" fill="black" >D</text>
<circle cx="200" cy="400" r="5" fill="rgb(1,238,238)" />
<text x="195" y="390" fill="black" >E</text>
<circle cx="300" cy="400" r="5" fill="rgb(238,238,1)" />
<text x="295" y="390" fill="black" >F</text>
<circle cx="400" cy="400" r="5" fill="rgb(1,238,238)" />
<text x="395" y="390" fill="black" >G</text>
<circle cx="100" cy="500" r="5" fill="rgb(238,238,1)" />
<text x="95" y="490" fill="black" >H</text>
<circle cx="500" cy="500" r="5" fill="rgb(238,238,1)" />
<text x="495" y="490" fill="black" >I</text>
<rect x="10" y="610" width="190" height="30" rx="5" ry="5" fill="white" stroke="black" stroke-width="1px" />
<text x="20" y="630" fill="darkorchid" >indice arete</text>
<text x="110" y="630" fill="darkgrey" >poids arete</text>


</svg>
