<?xml version="1.0" encoding="utf-8"?>
<svg xmlns="http://www.w3.org/2000/svg" version="1.1" width="1400" height="650">

<line x1="0" y1="0" x2="1400" y2="0" stroke="lightgrey" />
<text x="5" y="-5" fill="lightgrey" >0</text>
<line x1="0" y1="100" x2="1400" y2="100" stroke="lightgrey" />
<text x="5" y="95" fill="lightgrey" >1</text>
<line x1="0" y1="200" x2="1400" y2="200" stroke="lightgrey" />
<text x="5" y="195" fill="lightgrey" >2</text>
<line x1="0" y1="300" x2="1400" y2="300" stroke="lightgrey" />
<text x="5" y="295" fill="lightgrey" >3</text>
<line x1="0" y1="400" x2="1400" y2="400" stroke="lightgrey" />
<text x="5" y="395" fill="lightgrey" >4</text>
<line x1="0" y1="500" x2="1400" y2="500" stroke="lightgrey" />
<text x="5" y="495" fill="lightgrey" >5</text>
<line x1="0" y1="600" x2="1400" y2="600" stroke="lightgrey" />
<text x="5" y="595" fill="lightgrey" >6</text>
<line x1="0" y1="0" x2="0" y2="650" stroke="lightgrey" />
<text x="5" y="15" fill="lightgrey" >0</text>
<line x1="100" y1="0" x2="100" y2="650" stroke="lightgrey" />
<text x="105" y="15" fill="lightgrey" >1</text>
<line x1="200" y1="0" x2="200" y2="650" stroke="lightgrey" />
<text x="205" y="15" fill="lightgrey" >2</text>
<line x1="300" y1="0" x2="300" y2="650" stroke="lightgrey" />
<text x="305" y="15" fill="lightgrey" >3</text>
<line x1="400" y1="0" x2="400" y2="650" stroke="lightgrey" />
<text x="405" y="15" fill="lightgrey" >4</text>
<line x1="500" y1="0" x2="500" y2="650" stroke="lightgrey" />
<text x="505" y="15" fill="lightgrey" >5</text>
<line x1="600" y1="0" x2="600" y2="650" stroke="lightgrey" />
<text x="605" y="15" fill="lightgrey" >6</text>
<line x1="700" y1="0" x2="700" y2="650" stroke="lightgrey" />
<text x="705" y="15" fill="lightgrey" >7</text>
<line x1="800" y1="0" x2="800" y2="650" stroke="lightgrey" />
<text x="805" y="15" fill="lightgrey" >8</text>
<line x1="900" y1="0" x2="900" y2="650" stroke="lightgrey" />
<text x="905" y="15" fill="lightgrey" >9</text>
<line x1="1000" y1="0" x2="1000" y2="650" stroke="lightgrey" />
<text x="1005" y="15" fill="lightgrey" >10</text>
<line x1="1100" y1="0" x2="1100" y2="650" stroke="lightgrey" />
<text x="1105" y="15" fill="lightgrey" >11</text>
<line x1="1200" y1="0" x2="1200" y2="650" stroke="lightgrey" />
<text x="1205" y="15" fill="lightgrey" >12</text>
<line x1="1300" y1="0" x2="1300" y2="650" stroke="lightgrey" />
<text x="1305" y="15" fill="lightgrey" >13</text>
<line x1="1400" y1="0" x2="1400" y2="650" stroke="lightgrey" />
<text x="1405" y="15" fill="lightgrey" >14</text>
<line x1="300" y1="100" x2="200" y2="200" stroke="black" />
<text x="250" y="165" fill="darkorchid" >0</text>
<line x1="300" y1="100" x2="400" y2="200" stroke="black" />
<text x="350" y="135" fill="darkorchid" >1</text>
<line x1="200" y1="200" x2="300" y2="300" stroke="black" />
<text x="250" y="265" fill="darkorchid" >2</text>
<line x1="400" y1="200" x2="300" y2="300" stroke="black" />
<text x="350" y="235" fill="darkorchid" >3</text>
<line x1="300" y1="300" x2="200" y2="400" stroke="black" />
<text x="250" y="365" fill="darkorchid" >4</text>
<line x1="300" y1="300" x2="400" y2="400" stroke="black" />
<text x="350" y="335" fill="darkorchid" >5</text>
<line x1="200" y1="200" x2="100" y2="500" stroke="black" />
<text x="150" y="365" fill="darkorchid" >6</text>
<line x1="400" y1="200" x2="500" y2="500" stroke="black" />
<text x="450" y="335" fill="darkorchid" >7</text>
<line x1="200" y1="400" x2="300" y2="400" stroke="black" />
<text x="250" y="415" fill="darkorchid" >8</text>
<line x1="300" y1="400" x2="400" y2="400" stroke="black" />
<text x="350" y="385" fill="darkorchid" >9</text>
<line x1="400" y1="400" x2="500" y2="500" stroke="black" />
<text x="450" y="465" fill="darkorchid" >10</text>
<line x1="200" y1="400" x2="100" y2="500" stroke="black" />
<text x="150" y="435" fill="darkorchid" >11</text>
<line x1="100" y1="500" x2="500" y2="500" stroke="black" />
<text x="300" y="515" fill="darkorchid" >12</text>
<circle cx="300" cy="100" r="5" fill="rgb(238,238,1)" />
<text x="295" y="90" fill="black" >A</text>
<circle cx="200" cy="200" r="5" fill="rgb(1,119,238)" />
<text x="195" y="190" fill="black" >B</text>
<circle cx="400" cy="200" r="5" fill="rgb(1,119,238)" />
<text x="395" y="190" fill="black" >C</text>
<circle cx="300" cy="300" r="5" fill="rgb(238,1,1)" />
<text x="295" y="290" fill="black" >D</text>
<circle cx="200" cy="400" r="5" fill="rgb(1,119,238)" />
<text x="195" y="390" fill="black" >E</text>
<circle cx="300" cy="400" r="5" fill="rgb(238,238,1)" />
<text x="295" y="390" fill="black" >F</text>
<circle cx="400" cy="400" r="5" fill="rgb(1,119,238)" />
<text x="395" y="390" fill="black" >G</text>
<circle cx="100" cy="500" r="5" fill="rgb(1,119,238)" />
<text x="95" y="490" fill="black" >H</text>
<circle cx="500" cy="500" r="5" fill="rgb(1,119,238)" />
<text x="495" y="490" fill="black" >I</text>
<rect x="10" y="610" width="190" height="30" rx="5" ry="5" fill="white" stroke="black" stroke-width="1px" />
<text x="20" y="630" fill="darkorchid" >indice arete</text>
<text x="110" y="630" fill="darkgrey" >poids arete</text>


</svg>
