<?xml version="1.0" encoding="utf-8"?>
<svg xmlns="http://www.w3.org/2000/svg" version="1.1" width="600" height="650">

<line x1="242.637" y1="30.3297" x2="470.11" y2="257.802" stroke="black" />
<text x="356.374" y="159.066" fill="darkorchid" >0</text>
<text x="356.374" y="139.066" fill="grey" >1</text>
<line x1="1152.53" y1="30.3297" x2="925.055" y2="257.802" stroke="black" />
<text x="1038.79" y="127.066" fill="darkorchid" >1</text>
<text x="1038.79" y="139.066" fill="grey" >1</text>
<line x1="15.1648" y1="257.802" x2="470.11" y2="257.802" stroke="black" />
<text x="242.637" y="272.802" fill="darkorchid" >2</text>
<text x="242.637" y="252.802" fill="grey" >1</text>
<line x1="470.11" y1="257.802" x2="697.582" y2="257.802" stroke="black" />
<text x="583.846" y="240.802" fill="darkorchid" >3</text>
<text x="583.846" y="252.802" fill="grey" >1</text>
<line x1="697.582" y1="257.802" x2="925.055" y2="257.802" stroke="black" />
<text x="811.319" y="272.802" fill="darkorchid" >4</text>
<text x="811.319" y="252.802" fill="grey" >1</text>
<line x1="925.055" y1="257.802" x2="1380" y2="257.802" stroke="black" />
<text x="1152.53" y="240.802" fill="darkorchid" >5</text>
<text x="1152.53" y="252.802" fill="grey" >1</text>
<line x1="242.637" y1="485.275" x2="470.11" y2="257.802" stroke="black" />
<text x="356.374" y="386.538" fill="darkorchid" >6</text>
<text x="356.374" y="366.538" fill="grey" >1</text>
<line x1="1152.53" y1="485.275" x2="925.055" y2="257.802" stroke="black" />
<text x="1038.79" y="354.538" fill="darkorchid" >7</text>
<text x="1038.79" y="366.538" fill="grey" >1</text>
<circle cx="242.637" cy="30.3297" r="5" fill="rgb(238,238,1)" />
<text x="237.637" y="20.3297" fill="black" >A</text>
<circle cx="1152.53" cy="30.3297" r="5" fill="rgb(238,238,1)" />
<text x="1147.53" y="20.3297" fill="black" >B</text>
<circle cx="15.1648" cy="257.802" r="5" fill="rgb(238,238,1)" />
<text x="10.1648" y="247.802" fill="black" >C</text>
<circle cx="470.11" cy="257.802" r="5" fill="rgb(238,1,218)" />
<text x="465.11" y="247.802" fill="black" >D</text>
<circle cx="697.582" cy="257.802" r="5" fill="rgb(238,1,1)" />
<text x="692.582" y="247.802" fill="black" >E</text>
<circle cx="925.055" cy="257.802" r="5" fill="rgb(238,1,218)" />
<text x="920.055" y="247.802" fill="black" >F</text>
<circle cx="1380" cy="257.802" r="5" fill="rgb(238,238,1)" />
<text x="1375" y="247.802" fill="black" >G</text>
<circle cx="242.637" cy="485.275" r="5" fill="rgb(238,238,1)" />
<text x="237.637" y="475.275" fill="black" >H</text>
<circle cx="1152.53" cy="485.275" r="5" fill="rgb(238,238,1)" />
<text x="1147.53" y="475.275" fill="black" >I</text>
<rect x="10" y="610" width="190" height="30" rx="5" ry="5" fill="white" stroke="black" stroke-width="1px" />
<text x="20" y="630" fill="darkorchid" >indice arete</text>
<text x="110" y="630" fill="darkgrey" >poids arete</text>


</svg>
