<?xml version="1.0" encoding="utf-8"?>
<svg xmlns="http://www.w3.org/2000/svg" version="1.1" width="1400" height="650">

<line x1="300" y1="23.0769" x2="155.769" y2="167.308" stroke="rgb(238,238,1)" />
<text x="227.885" y="110.192" fill="rgb(238,238,1)" >0</text>
<text x="227.885" y="90.1923" fill="grey" >1</text>
<line x1="300" y1="23.0769" x2="444.231" y2="167.308" stroke="rgb(238,238,1)" />
<text x="372.115" y="78.1923" fill="rgb(238,238,1)" >1</text>
<text x="372.115" y="90.1923" fill="grey" >1</text>
<line x1="155.769" y1="167.308" x2="300" y2="311.538" stroke="rgb(238,1,1)" />
<text x="227.885" y="254.423" fill="rgb(238,1,1)" >2</text>
<text x="227.885" y="234.423" fill="grey" >1</text>
<line x1="444.231" y1="167.308" x2="300" y2="311.538" stroke="rgb(238,1,1)" />
<text x="372.115" y="222.423" fill="rgb(238,1,1)" >3</text>
<text x="372.115" y="234.423" fill="grey" >1</text>
<line x1="300" y1="311.538" x2="155.769" y2="455.769" stroke="rgb(238,1,1)" />
<text x="227.885" y="398.654" fill="rgb(238,1,1)" >4</text>
<text x="227.885" y="378.654" fill="grey" >1</text>
<line x1="300" y1="311.538" x2="444.231" y2="455.769" stroke="rgb(238,1,1)" />
<text x="372.115" y="366.654" fill="rgb(238,1,1)" >5</text>
<text x="372.115" y="378.654" fill="grey" >1</text>
<line x1="155.769" y1="167.308" x2="11.5385" y2="600" stroke="rgb(238,238,1)" />
<text x="83.6538" y="398.654" fill="rgb(238,238,1)" >6</text>
<text x="83.6538" y="378.654" fill="grey" >1</text>
<line x1="444.231" y1="167.308" x2="588.462" y2="600" stroke="rgb(238,238,1)" />
<text x="516.346" y="366.654" fill="rgb(238,238,1)" >7</text>
<text x="516.346" y="378.654" fill="grey" >1</text>
<line x1="155.769" y1="455.769" x2="300" y2="455.769" stroke="rgb(238,238,1)" />
<text x="227.885" y="470.769" fill="rgb(238,238,1)" >8</text>
<text x="227.885" y="450.769" fill="grey" >1</text>
<line x1="300" y1="455.769" x2="444.231" y2="455.769" stroke="rgb(238,238,1)" />
<text x="372.115" y="438.769" fill="rgb(238,238,1)" >9</text>
<text x="372.115" y="450.769" fill="grey" >1</text>
<line x1="444.231" y1="455.769" x2="588.462" y2="600" stroke="rgb(238,238,1)" />
<text x="516.346" y="542.885" fill="rgb(238,238,1)" >10</text>
<text x="516.346" y="522.885" fill="grey" >1</text>
<line x1="155.769" y1="455.769" x2="11.5385" y2="600" stroke="rgb(238,238,1)" />
<text x="83.6538" y="510.885" fill="rgb(238,238,1)" >11</text>
<text x="83.6538" y="522.885" fill="grey" >1</text>
<circle cx="300" cy="23.0769" r="5" fill="rgb(238,238,1)" />
<text x="295" y="13.0769" fill="black" >A</text>
<circle cx="155.769" cy="167.308" r="5" fill="rgb(1,238,226)" />
<text x="150.769" y="157.308" fill="black" >B</text>
<circle cx="444.231" cy="167.308" r="5" fill="rgb(1,238,226)" />
<text x="439.231" y="157.308" fill="black" >C</text>
<circle cx="300" cy="311.538" r="5" fill="rgb(238,1,1)" />
<text x="295" y="301.538" fill="black" >D</text>
<circle cx="155.769" cy="455.769" r="5" fill="rgb(1,238,226)" />
<text x="150.769" y="445.769" fill="black" >E</text>
<circle cx="300" cy="455.769" r="5" fill="rgb(238,238,1)" />
<text x="295" y="445.769" fill="black" >F</text>
<circle cx="444.231" cy="455.769" r="5" fill="rgb(1,238,226)" />
<text x="439.231" y="445.769" fill="black" >G</text>
<circle cx="11.5385" cy="600" r="5" fill="rgb(238,238,1)" />
<text x="6.53846" y="590" fill="black" >H</text>
<circle cx="588.462" cy="600" r="5" fill="rgb(238,238,1)" />
<text x="583.462" y="590" fill="black" >I</text>
<rect x="10" y="610" width="190" height="30" rx="5" ry="5" fill="white" stroke="black" stroke-width="1px" />
<text x="20" y="630" fill="darkorchid" >indice arete</text>
<text x="110" y="630" fill="darkgrey" >poids arete</text>


</svg>
