<?xml version="1.0" encoding="utf-8"?>
<svg xmlns="http://www.w3.org/2000/svg" version="1.1" width="1400" height="650">

<line x1="300" y1="37.5" x2="300" y2="318.75" stroke="rgb(0,0,0)" />
<text x="300" y="193.125" fill="rgb(0,0,0)" >0</text>
<text x="300" y="173.125" fill="grey" >1</text>
<line x1="18.75" y1="318.75" x2="300" y2="318.75" stroke="rgb(0,0,0)" />
<text x="159.375" y="301.75" fill="rgb(0,0,0)" >1</text>
<text x="159.375" y="313.75" fill="grey" >1</text>
<line x1="300" y1="318.75" x2="581.25" y2="318.75" stroke="rgb(0,0,0)" />
<text x="440.625" y="333.75" fill="rgb(0,0,0)" >2</text>
<text x="440.625" y="313.75" fill="grey" >1</text>
<line x1="300" y1="318.75" x2="300" y2="600" stroke="rgb(0,0,0)" />
<text x="300" y="442.375" fill="rgb(0,0,0)" >3</text>
<text x="300" y="454.375" fill="grey" >1</text>
<circle cx="300" cy="37.5" r="5" fill="rgb(238,238,1)" />
<text x="295" y="27.5" fill="black" >A</text>
<circle cx="18.75" cy="318.75" r="5" fill="rgb(238,238,1)" />
<text x="13.75" y="308.75" fill="black" >B</text>
<circle cx="300" cy="318.75" r="5" fill="rgb(238,1,1)" />
<text x="295" y="308.75" fill="black" >C</text>
<circle cx="581.25" cy="318.75" r="5" fill="rgb(238,238,1)" />
<text x="576.25" y="308.75" fill="black" >D</text>
<circle cx="300" cy="600" r="5" fill="rgb(238,238,1)" />
<text x="295" y="590" fill="black" >E</text>
<rect x="10" y="610" width="190" height="30" rx="5" ry="5" fill="white" stroke="black" stroke-width="1px" />
<text x="20" y="630" fill="darkorchid" >indice arete</text>
<text x="110" y="630" fill="darkgrey" >poids arete</text>


</svg>
