<?xml version="1.0" encoding="utf-8"?>
<svg xmlns="http://www.w3.org/2000/svg" version="1.1" width="1000" height="800">

<line x1="0" y1="0" x2="1000" y2="0" stroke="lightgrey" />
<text x="5" y="-5" fill="lightgrey" >0</text>
<line x1="0" y1="100" x2="1000" y2="100" stroke="lightgrey" />
<text x="5" y="95" fill="lightgrey" >1</text>
<line x1="0" y1="200" x2="1000" y2="200" stroke="lightgrey" />
<text x="5" y="195" fill="lightgrey" >2</text>
<line x1="0" y1="300" x2="1000" y2="300" stroke="lightgrey" />
<text x="5" y="295" fill="lightgrey" >3</text>
<line x1="0" y1="400" x2="1000" y2="400" stroke="lightgrey" />
<text x="5" y="395" fill="lightgrey" >4</text>
<line x1="0" y1="500" x2="1000" y2="500" stroke="lightgrey" />
<text x="5" y="495" fill="lightgrey" >5</text>
<line x1="0" y1="600" x2="1000" y2="600" stroke="lightgrey" />
<text x="5" y="595" fill="lightgrey" >6</text>
<line x1="0" y1="700" x2="1000" y2="700" stroke="lightgrey" />
<text x="5" y="695" fill="lightgrey" >7</text>
<line x1="0" y1="800" x2="1000" y2="800" stroke="lightgrey" />
<text x="5" y="795" fill="lightgrey" >8</text>
<line x1="0" y1="0" x2="0" y2="800" stroke="lightgrey" />
<text x="5" y="15" fill="lightgrey" >0</text>
<line x1="100" y1="0" x2="100" y2="800" stroke="lightgrey" />
<text x="105" y="15" fill="lightgrey" >1</text>
<line x1="200" y1="0" x2="200" y2="800" stroke="lightgrey" />
<text x="205" y="15" fill="lightgrey" >2</text>
<line x1="300" y1="0" x2="300" y2="800" stroke="lightgrey" />
<text x="305" y="15" fill="lightgrey" >3</text>
<line x1="400" y1="0" x2="400" y2="800" stroke="lightgrey" />
<text x="405" y="15" fill="lightgrey" >4</text>
<line x1="500" y1="0" x2="500" y2="800" stroke="lightgrey" />
<text x="505" y="15" fill="lightgrey" >5</text>
<line x1="600" y1="0" x2="600" y2="800" stroke="lightgrey" />
<text x="605" y="15" fill="lightgrey" >6</text>
<line x1="700" y1="0" x2="700" y2="800" stroke="lightgrey" />
<text x="705" y="15" fill="lightgrey" >7</text>
<line x1="800" y1="0" x2="800" y2="800" stroke="lightgrey" />
<text x="805" y="15" fill="lightgrey" >8</text>
<line x1="900" y1="0" x2="900" y2="800" stroke="lightgrey" />
<text x="905" y="15" fill="lightgrey" >9</text>
<line x1="1000" y1="0" x2="1000" y2="800" stroke="lightgrey" />
<text x="1005" y="15" fill="lightgrey" >10</text>
<circle cx="200" cy="100" r="5" fill="cyan" />
<text x="195" y="90" fill="black" >A</text>
<circle cx="100" cy="200" r="5" fill="cyan" />
<text x="95" y="190" fill="black" >B</text>
<circle cx="200" cy="200" r="5" fill="red" />
<text x="195" y="190" fill="black" >C</text>
<circle cx="300" cy="200" r="5" fill="cyan" />
<text x="295" y="190" fill="black" >D</text>
<circle cx="200" cy="300" r="5" fill="cyan" />
<text x="195" y="290" fill="black" >E</text>
<line x1="200" y1="100" x2="200" y2="200" stroke="black" />
<text x="200" y="165" fill="darkorchid" >0</text>
<text x="200" y="145" fill="grey" >4</text>
<line x1="100" y1="200" x2="200" y2="200" stroke="black" />
<text x="150" y="215" fill="darkorchid" >1</text>
<text x="150" y="195" fill="grey" >1</text>
<line x1="200" y1="200" x2="300" y2="200" stroke="black" />
<text x="250" y="215" fill="darkorchid" >2</text>
<text x="250" y="195" fill="grey" >2</text>
<line x1="200" y1="200" x2="200" y2="300" stroke="black" />
<text x="200" y="265" fill="darkorchid" >3</text>
<text x="200" y="245" fill="grey" >2</text>
<rect x="870" y="600" width="120" height="130" rx="5" ry="5" fill="white" stroke="black" stroke-width="1px" />
<text x="880" y="620" fill="darkorchid" >indice arete</text>
<text x="880" y="640" fill="darkgrey" >poids arete</text>
<circle cx="885" cy="655" r="5" fill="cyan" />
<text x="895" y="660" fill="black" >C_degre = 1</text>
<circle cx="885" cy="675" r="5" fill="green" />
<text x="895" y="680" fill="black" >C_degre = 2</text>
<circle cx="885" cy="695" r="5" fill="blue" />
<text x="895" y="700" fill="black" >C_degre = 3</text>
<circle cx="885" cy="715" r="5" fill="red" />
<text x="895" y="720" fill="black" >C_degre = 4</text>


</svg>
